<?xml version="1.0" encoding="utf-8"?>
<!-- Generator: Adobe Illustrator 27.3.1, SVG Export Plug-In . SVG Version: 6.00 Build 0)  -->
<svg version="1.1" id="Layer_1" xmlns="http://www.w3.org/2000/svg" xmlns:xlink="http://www.w3.org/1999/xlink" x="0px" y="0px"
	 viewBox="0 0 497 75" style="enable-background:new 0 0 497 75;" xml:space="preserve">
<style type="text/css">
	.st0{enable-background:new    ;}
	.st1{fill:#010101;}
</style>
<g class="st0">
	<path class="st1" d="M32.2,21.9c-0.3-0.4-0.6-0.8-1-1.1s-0.8-0.6-1.3-0.7s-1-0.3-1.6-0.3c-1,0-1.8,0.2-2.5,0.6s-1.3,0.9-1.7,1.5
		s-0.7,1.4-0.9,2.2c-0.2,0.8-0.3,1.7-0.3,2.5s0.1,1.7,0.3,2.5s0.5,1.5,0.9,2.1s1,1.1,1.7,1.5s1.5,0.6,2.5,0.6c1.3,0,2.4-0.4,3.1-1.2
		s1.2-1.9,1.4-3.2h4.3c-0.1,1.3-0.4,2.4-0.9,3.4c-0.5,1-1.1,1.9-1.8,2.6c-0.8,0.7-1.7,1.3-2.7,1.6s-2.2,0.6-3.4,0.6
		c-1.5,0-2.9-0.3-4.1-0.8c-1.2-0.5-2.3-1.3-3.1-2.2s-1.5-2-1.9-3.3s-0.7-2.6-0.7-4.1s0.2-2.9,0.7-4.2c0.4-1.3,1.1-2.4,1.9-3.3
		s1.9-1.7,3.1-2.2c1.2-0.5,2.6-0.8,4.1-0.8c1.1,0,2.1,0.2,3.1,0.5s1.9,0.8,2.6,1.4c0.8,0.6,1.4,1.4,1.9,2.3s0.8,1.9,1,3.1h-4.3
		C32.6,22.8,32.4,22.3,32.2,21.9z"/>
	<path class="st1" d="M43.7,16.6v7.5h0.1c0.5-0.8,1.1-1.5,1.9-1.8c0.8-0.4,1.5-0.6,2.3-0.6c1.1,0,1.9,0.1,2.6,0.4
		c0.7,0.3,1.2,0.7,1.6,1.2c0.4,0.5,0.7,1.1,0.8,1.9c0.2,0.7,0.2,1.6,0.2,2.4v8.9h-4v-8.2c0-1.2-0.2-2.1-0.6-2.7
		c-0.4-0.6-1-0.9-2-0.9c-1.1,0-1.9,0.3-2.4,1c-0.5,0.6-0.7,1.7-0.7,3.2v7.6h-4v-20h4.2V16.6z"/>
	<path class="st1" d="M56.1,26.6c0.1-0.9,0.3-1.7,0.7-2.3c0.4-0.6,0.9-1.1,1.6-1.5c0.6-0.4,1.3-0.6,2.1-0.8c0.8-0.2,1.6-0.2,2.4-0.2
		c0.7,0,1.5,0.1,2.2,0.2s1.4,0.3,2,0.6c0.6,0.3,1.1,0.7,1.5,1.2s0.6,1.2,0.6,2.1v7.5c0,0.7,0,1.3,0.1,1.9c0.1,0.6,0.2,1,0.4,1.3h-4
		c-0.1-0.2-0.1-0.5-0.2-0.7c0-0.2-0.1-0.5-0.1-0.7c-0.6,0.7-1.4,1.1-2.2,1.4c-0.9,0.3-1.7,0.4-2.6,0.4c-0.7,0-1.3-0.1-1.9-0.3
		c-0.6-0.2-1.1-0.4-1.6-0.8c-0.4-0.4-0.8-0.8-1.1-1.3s-0.4-1.2-0.4-1.9c0-0.8,0.1-1.5,0.4-2c0.3-0.5,0.7-1,1.1-1.3
		c0.5-0.3,1-0.6,1.6-0.7s1.2-0.3,1.8-0.4s1.2-0.2,1.8-0.2c0.6-0.1,1.1-0.1,1.5-0.3c0.4-0.1,0.8-0.3,1.1-0.5s0.4-0.5,0.4-0.9
		s-0.1-0.8-0.2-1c-0.1-0.3-0.3-0.4-0.6-0.6c-0.2-0.1-0.5-0.2-0.8-0.3c-0.3,0-0.6-0.1-1-0.1c-0.8,0-1.4,0.2-1.8,0.5
		c-0.4,0.3-0.7,0.9-0.8,1.7C60.1,26.6,56.1,26.6,56.1,26.6z M65.3,29.5c-0.2,0.1-0.4,0.3-0.6,0.3S64.2,30,63.9,30
		c-0.3,0.1-0.6,0.1-0.9,0.1s-0.6,0.1-1,0.1c-0.3,0.1-0.6,0.1-0.9,0.2c-0.3,0.1-0.5,0.2-0.8,0.4c-0.2,0.2-0.4,0.4-0.5,0.6
		s-0.2,0.6-0.2,0.9c0,0.4,0.1,0.7,0.2,0.9c0.1,0.2,0.3,0.4,0.5,0.6c0.2,0.1,0.5,0.2,0.8,0.3s0.6,0.1,0.9,0.1c0.8,0,1.4-0.1,1.8-0.4
		c0.4-0.3,0.7-0.6,1-0.9c0.2-0.4,0.3-0.7,0.4-1.1c0-0.4,0.1-0.7,0.1-0.9V29.5z"/>
	<path class="st1" d="M72.5,26.2c0.4-0.9,0.9-1.7,1.5-2.4c0.7-0.7,1.4-1.2,2.4-1.5c0.9-0.4,1.9-0.5,3.1-0.5c1.1,0,2.2,0.2,3.1,0.5
		c0.9,0.4,1.7,0.9,2.4,1.5c0.7,0.7,1.2,1.5,1.5,2.4c0.4,0.9,0.5,2,0.5,3.2s-0.2,2.2-0.5,3.1c-0.4,0.9-0.9,1.7-1.5,2.4
		c-0.7,0.7-1.4,1.2-2.4,1.5c-0.9,0.4-2,0.5-3.1,0.5s-2.2-0.2-3.1-0.5s-1.7-0.9-2.4-1.5c-0.7-0.7-1.2-1.5-1.5-2.4
		c-0.4-0.9-0.5-2-0.5-3.1S72.1,27.2,72.5,26.2z M76.1,31.1c0.1,0.6,0.3,1,0.6,1.5c0.3,0.4,0.6,0.8,1.1,1c0.4,0.3,1,0.4,1.7,0.4
		s1.2-0.1,1.7-0.4c0.5-0.3,0.8-0.6,1.1-1c0.3-0.4,0.5-0.9,0.6-1.5c0.1-0.5,0.2-1.1,0.2-1.7s-0.1-1.1-0.2-1.7s-0.3-1.1-0.6-1.5
		c-0.3-0.4-0.6-0.8-1.1-1s-1-0.4-1.7-0.4s-1.2,0.1-1.7,0.4c-0.4,0.3-0.8,0.6-1.1,1s-0.5,0.9-0.6,1.5s-0.2,1.1-0.2,1.7
		C75.9,29.9,76,30.5,76.1,31.1z"/>
	<path class="st1" d="M92.8,33c0.2,0.3,0.4,0.6,0.7,0.8c0.3,0.2,0.6,0.3,1,0.4c0.4,0.1,0.7,0.1,1.1,0.1c0.3,0,0.6,0,0.9-0.1
		s0.6-0.2,0.8-0.3c0.3-0.1,0.5-0.3,0.6-0.6c0.2-0.2,0.3-0.5,0.3-0.9c0-0.6-0.4-1-1.2-1.3c-0.8-0.3-1.9-0.6-3.3-0.9
		c-0.6-0.1-1.1-0.3-1.7-0.5s-1-0.4-1.5-0.7c-0.4-0.3-0.8-0.7-1-1.1c-0.3-0.4-0.4-1-0.4-1.6c0-0.9,0.2-1.7,0.5-2.3
		c0.4-0.6,0.8-1.1,1.4-1.4s1.3-0.6,2-0.7s1.5-0.2,2.3-0.2s1.5,0.1,2.3,0.2c0.7,0.1,1.4,0.4,2,0.8s1.1,0.8,1.4,1.4
		c0.4,0.6,0.6,1.3,0.7,2.2H98c-0.1-0.8-0.3-1.3-0.9-1.6c-0.5-0.3-1.1-0.4-1.8-0.4c-0.2,0-0.5,0-0.7,0c-0.3,0-0.5,0.1-0.7,0.2
		s-0.4,0.2-0.5,0.4c-0.1,0.2-0.2,0.4-0.2,0.7c0,0.4,0.1,0.6,0.4,0.9c0.3,0.2,0.6,0.4,1,0.5s0.9,0.3,1.4,0.4s1.1,0.2,1.7,0.4
		c0.6,0.1,1.1,0.3,1.7,0.5s1,0.4,1.5,0.7c0.4,0.3,0.8,0.7,1,1.1c0.3,0.5,0.4,1,0.4,1.7c0,1-0.2,1.8-0.6,2.4
		c-0.4,0.6-0.9,1.2-1.5,1.6c-0.6,0.4-1.3,0.7-2.1,0.8c-0.8,0.2-1.6,0.2-2.4,0.2s-1.7-0.1-2.5-0.3s-1.5-0.4-2.1-0.8
		c-0.6-0.4-1.1-0.9-1.5-1.6c-0.4-0.6-0.6-1.5-0.7-2.4h3.8C92.6,32.3,92.6,32.7,92.8,33z"/>
</g>
<g class="st0">
	<path class="st1" d="M21.2,43.4h1.9l3.9,10h-2l-0.9-2.6h-4l-0.9,2.6h-1.8L21.2,43.4z M20.6,49.4h3.1l-1.5-4.3l0,0L20.6,49.4z"/>
	<path class="st1" d="M27.6,46.1h1.5v1.1l0,0c0.2-0.4,0.6-0.7,1-0.9s0.8-0.3,1.3-0.3c0.8,0,1.4,0.2,1.9,0.6c0.5,0.4,0.7,1,0.7,1.8v5
		h-1.6v-4.5c0-0.6-0.1-1-0.4-1.2c-0.2-0.3-0.6-0.4-1-0.4c-0.3,0-0.5,0-0.7,0.1s-0.4,0.2-0.5,0.4s-0.3,0.4-0.4,0.6s-0.1,0.5-0.1,0.7
		v4.3h-1.6L27.6,46.1L27.6,46.1z"/>
	<path class="st1" d="M39.8,43.4h1.8v10h-1.8V43.4z"/>
	<path class="st1" d="M43.4,46.1h1.5v1.1l0,0c0.2-0.4,0.6-0.7,1-0.9s0.8-0.3,1.3-0.3c0.8,0,1.4,0.2,1.9,0.6c0.5,0.4,0.7,1,0.7,1.8v5
		h-1.6v-4.5c0-0.6-0.1-1-0.4-1.2c-0.2-0.3-0.6-0.4-1-0.4c-0.3,0-0.5,0-0.7,0.1s-0.4,0.2-0.5,0.4s-0.3,0.4-0.4,0.6s-0.1,0.5-0.1,0.7
		v4.3h-1.6L43.4,46.1L43.4,46.1z"/>
	<path class="st1" d="M50.7,46.1h1.2V44h1.6v2.2h1.4v1.2h-1.4v3.9c0,0.2,0,0.3,0,0.4c0,0.1,0,0.2,0.1,0.3s0.1,0.1,0.2,0.2
		c0.1,0,0.2,0.1,0.4,0.1c0.1,0,0.2,0,0.3,0s0.2,0,0.3,0v1.2c-0.2,0-0.4,0-0.5,0.1s-0.3,0-0.5,0c-0.4,0-0.8,0-1-0.1
		c-0.3-0.1-0.5-0.2-0.6-0.4s-0.2-0.3-0.3-0.6c-0.1-0.2-0.1-0.5-0.1-0.8v-4.3h-1.2v-1.3H50.7z"/>
	<path class="st1" d="M57.4,50.2c0,0.3,0,0.6,0.1,0.8c0.1,0.3,0.2,0.5,0.4,0.7s0.4,0.4,0.6,0.5c0.2,0.1,0.5,0.2,0.9,0.2
		c0.5,0,0.8-0.1,1.1-0.3s0.5-0.5,0.6-0.9h1.5c-0.1,0.4-0.2,0.7-0.4,1s-0.5,0.6-0.7,0.8c-0.3,0.2-0.6,0.4-1,0.5s-0.7,0.2-1.1,0.2
		c-0.6,0-1.1-0.1-1.5-0.3s-0.8-0.4-1.1-0.8c-0.3-0.3-0.5-0.7-0.7-1.2s-0.2-1-0.2-1.5s0.1-1,0.2-1.5s0.4-0.9,0.7-1.2s0.7-0.6,1.1-0.8
		c0.4-0.2,0.9-0.3,1.5-0.3s1.1,0.1,1.5,0.4s0.8,0.6,1.1,0.9c0.3,0.4,0.5,0.8,0.7,1.4s0.2,1,0.1,1.6h-5.4V50.2z M61.1,49.1
		c0-0.3-0.1-0.5-0.2-0.7c-0.1-0.2-0.2-0.4-0.4-0.6c-0.2-0.2-0.3-0.3-0.6-0.4c-0.2-0.1-0.5-0.2-0.7-0.2c-0.3,0-0.5,0-0.8,0.1
		c-0.2,0.1-0.4,0.2-0.6,0.4c-0.2,0.2-0.3,0.4-0.4,0.6s-0.2,0.5-0.2,0.8C57.2,49.1,61.1,49.1,61.1,49.1z"/>
	<path class="st1" d="M63.9,46.1h1.5v1.4l0,0c0-0.2,0.1-0.4,0.3-0.6c0.1-0.2,0.3-0.4,0.5-0.5s0.4-0.3,0.6-0.4
		c0.2-0.1,0.5-0.1,0.7-0.1s0.3,0,0.4,0c0.1,0,0.1,0,0.2,0v1.5c-0.1,0-0.2,0-0.3,0s-0.2,0-0.3,0c-0.3,0-0.5,0.1-0.8,0.2
		c-0.2,0.1-0.4,0.3-0.6,0.5s-0.3,0.5-0.4,0.8c-0.1,0.3-0.2,0.7-0.2,1.1v3.4h-1.6L63.9,46.1L63.9,46.1z"/>
	<path class="st1" d="M75.4,53.4h-1.5v-1l0,0c-0.2,0.4-0.5,0.7-0.9,0.9s-0.8,0.3-1.3,0.3c-0.6,0-1.1-0.1-1.5-0.3s-0.8-0.5-1.1-0.8
		s-0.5-0.8-0.6-1.2c-0.1-0.5-0.2-1-0.2-1.5c0-0.7,0.1-1.2,0.3-1.7s0.4-0.9,0.7-1.2s0.6-0.5,1-0.7c0.4-0.1,0.8-0.2,1.2-0.2
		c0.2,0,0.5,0,0.7,0.1s0.5,0.1,0.7,0.2c0.2,0.1,0.4,0.2,0.6,0.4c0.2,0.1,0.3,0.3,0.5,0.5l0,0v-3.7h1.6v9.9H75.4z M69.8,49.8
		c0,0.3,0,0.6,0.1,0.9c0.1,0.3,0.2,0.6,0.4,0.8s0.4,0.4,0.6,0.6c0.3,0.1,0.6,0.2,0.9,0.2c0.4,0,0.7-0.1,0.9-0.2s0.5-0.3,0.6-0.6
		c0.2-0.2,0.3-0.5,0.4-0.8c0.1-0.3,0.1-0.6,0.1-0.9c0-0.8-0.2-1.4-0.5-1.9c-0.4-0.4-0.8-0.7-1.5-0.7c-0.4,0-0.7,0.1-0.9,0.2
		c-0.3,0.2-0.5,0.4-0.6,0.6c-0.2,0.2-0.3,0.5-0.4,0.8C69.9,49.2,69.8,49.5,69.8,49.8z"/>
	<path class="st1" d="M77.2,43.4h1.6v1.5h-1.6L77.2,43.4L77.2,43.4z M77.2,46.1h1.6v7.2h-1.6L77.2,46.1L77.2,46.1z"/>
	<path class="st1" d="M81.7,51.1c0,0.5,0.2,0.8,0.5,1s0.7,0.3,1.1,0.3c0.1,0,0.3,0,0.5,0s0.4-0.1,0.5-0.1c0.2-0.1,0.3-0.2,0.4-0.3
		s0.2-0.3,0.1-0.5s-0.1-0.4-0.2-0.5s-0.3-0.2-0.5-0.3s-0.5-0.1-0.7-0.2c-0.3-0.1-0.6-0.1-0.9-0.2c-0.3-0.1-0.6-0.1-0.9-0.2
		c-0.3-0.1-0.5-0.2-0.7-0.4s-0.4-0.4-0.5-0.6c-0.1-0.2-0.2-0.6-0.2-0.9c0-0.4,0.1-0.7,0.3-1c0.2-0.3,0.4-0.5,0.7-0.6s0.6-0.3,1-0.3
		c0.4-0.1,0.7-0.1,1-0.1c0.4,0,0.7,0,1.1,0.1c0.3,0.1,0.6,0.2,0.9,0.4s0.5,0.4,0.7,0.7s0.3,0.6,0.3,1h-1.7c-0.1-0.4-0.2-0.6-0.5-0.8
		c-0.3-0.1-0.6-0.2-0.9-0.2c-0.1,0-0.2,0-0.4,0c-0.2,0-0.3,0.1-0.4,0.1c-0.1,0.1-0.2,0.1-0.3,0.2c-0.1,0.1-0.1,0.2-0.1,0.4
		s0.1,0.4,0.2,0.5s0.3,0.2,0.5,0.3s0.5,0.1,0.7,0.2c0.3,0.1,0.6,0.1,0.9,0.2c0.3,0.1,0.6,0.1,0.9,0.2c0.3,0.1,0.5,0.2,0.7,0.4
		s0.4,0.4,0.5,0.6c0.1,0.2,0.2,0.5,0.2,0.9s-0.1,0.8-0.3,1.1c-0.2,0.3-0.5,0.5-0.8,0.7s-0.7,0.3-1,0.4c-0.4,0.1-0.8,0.1-1.1,0.1
		c-0.5,0-0.9-0.1-1.3-0.2c-0.4-0.1-0.7-0.3-1-0.5s-0.5-0.5-0.7-0.8s-0.2-0.7-0.3-1.1C80,51.1,81.7,51.1,81.7,51.1z"/>
	<path class="st1" d="M92.7,48.6c-0.1-0.4-0.2-0.8-0.5-1s-0.7-0.3-1.1-0.3c-0.2,0-0.4,0-0.7,0.1c-0.2,0.1-0.4,0.2-0.6,0.4
		s-0.4,0.5-0.5,0.8s-0.2,0.8-0.2,1.3c0,0.3,0,0.6,0.1,0.9c0.1,0.3,0.2,0.6,0.3,0.8c0.2,0.2,0.4,0.4,0.6,0.6c0.2,0.1,0.5,0.2,0.9,0.2
		c0.5,0,0.9-0.1,1.2-0.4c0.3-0.3,0.5-0.7,0.6-1.2h1.6c-0.1,0.9-0.5,1.7-1.1,2.2s-1.3,0.7-2.2,0.7c-0.6,0-1.1-0.1-1.5-0.3
		s-0.8-0.5-1.1-0.8s-0.5-0.7-0.7-1.2s-0.2-1-0.2-1.5s0.1-1,0.2-1.5s0.4-0.9,0.7-1.2c0.3-0.4,0.7-0.6,1.1-0.8s1-0.3,1.6-0.3
		c0.4,0,0.8,0.1,1.2,0.2c0.4,0.1,0.7,0.3,1,0.5s0.5,0.5,0.7,0.8s0.3,0.7,0.3,1.2h-1.7V48.6z"/>
	<path class="st1" d="M95.6,43.4h1.6v1.5h-1.6V43.4z M95.6,46.1h1.6v7.2h-1.6V46.1z"/>
	<path class="st1" d="M99,46.1h1.5v1l0,0c0.2-0.4,0.5-0.7,0.9-0.9s0.8-0.3,1.3-0.3c0.6,0,1.1,0.1,1.5,0.3s0.8,0.5,1.1,0.8
		c0.3,0.3,0.5,0.8,0.6,1.2c0.1,0.5,0.2,1,0.2,1.5s-0.1,1-0.2,1.4s-0.3,0.9-0.6,1.2c-0.3,0.3-0.6,0.6-1,0.8s-0.9,0.3-1.4,0.3
		c-0.2,0-0.5,0-0.7-0.1s-0.5-0.1-0.7-0.2c-0.2-0.1-0.4-0.2-0.6-0.4s-0.3-0.3-0.5-0.5l0,0v3.6H99V46.1z M104.6,49.8
		c0-0.3,0-0.6-0.1-1c-0.1-0.3-0.2-0.6-0.4-0.8s-0.4-0.4-0.6-0.6s-0.5-0.2-0.9-0.2c-0.7,0-1.2,0.2-1.5,0.7s-0.5,1.1-0.5,1.9
		c0,0.4,0,0.7,0.1,1s0.2,0.6,0.4,0.8c0.2,0.2,0.4,0.4,0.6,0.5s0.5,0.2,0.9,0.2s0.7-0.1,0.9-0.2s0.5-0.3,0.6-0.6
		c0.2-0.2,0.3-0.5,0.4-0.8C104.5,50.4,104.6,50.1,104.6,49.8z"/>
	<path class="st1" d="M107.5,43.4h1.6v10h-1.6V43.4z"/>
	<path class="st1" d="M110.9,43.4h1.6v1.5h-1.6V43.4z M110.9,46.1h1.6v7.2h-1.6V46.1z"/>
	<path class="st1" d="M114.2,46.1h1.5v1.1l0,0c0.2-0.4,0.6-0.7,1-0.9s0.8-0.3,1.3-0.3c0.8,0,1.4,0.2,1.9,0.6c0.5,0.4,0.7,1,0.7,1.8
		v5H119v-4.5c0-0.6-0.1-1-0.4-1.2c-0.2-0.3-0.6-0.4-1-0.4c-0.3,0-0.5,0-0.7,0.1s-0.4,0.2-0.5,0.4s-0.3,0.4-0.4,0.6s-0.1,0.5-0.1,0.7
		v4.3h-1.6L114.2,46.1L114.2,46.1z"/>
	<path class="st1" d="M128.3,51.8c0,0.2,0,0.3,0.1,0.4s0.2,0.1,0.3,0.1c0,0,0.1,0,0.2,0s0.1,0,0.2,0v1.1c-0.1,0-0.1,0-0.2,0.1
		c-0.1,0-0.2,0-0.3,0.1c-0.1,0-0.2,0-0.3,0c-0.1,0-0.2,0-0.2,0c-0.3,0-0.6-0.1-0.8-0.2c-0.2-0.1-0.4-0.4-0.4-0.7
		c-0.3,0.3-0.7,0.5-1.2,0.7c-0.5,0.1-0.9,0.2-1.3,0.2c-0.3,0-0.6,0-0.9-0.1s-0.6-0.2-0.8-0.4c-0.2-0.2-0.4-0.4-0.5-0.7
		s-0.2-0.6-0.2-0.9c0-0.4,0.1-0.8,0.2-1.1c0.2-0.3,0.4-0.5,0.6-0.7c0.3-0.2,0.6-0.3,0.9-0.3c0.3-0.1,0.7-0.1,1-0.2
		c0.3-0.1,0.6-0.1,0.8-0.1s0.5-0.1,0.7-0.1c0.2-0.1,0.4-0.1,0.5-0.3c0.1-0.1,0.2-0.3,0.2-0.5s0-0.4-0.1-0.5s-0.2-0.2-0.4-0.3
		c-0.1-0.1-0.3-0.1-0.5-0.1s-0.3,0-0.5,0c-0.4,0-0.8,0.1-1.1,0.3c-0.3,0.2-0.5,0.5-0.5,0.9h-1.6c0-0.5,0.1-0.9,0.3-1.2
		c0.2-0.3,0.4-0.6,0.7-0.7s0.6-0.3,1-0.4c0.4-0.1,0.8-0.1,1.2-0.1c0.4,0,0.7,0,1.1,0.1c0.3,0.1,0.7,0.2,0.9,0.4s0.5,0.4,0.7,0.7
		s0.3,0.6,0.3,1v3.5H128.3z M126.7,49.8c-0.2,0.2-0.5,0.3-0.9,0.3s-0.7,0.1-1.1,0.1c-0.2,0-0.3,0.1-0.5,0.1
		c-0.2,0.1-0.3,0.1-0.4,0.2c-0.1,0.1-0.2,0.2-0.3,0.4c-0.1,0.1-0.1,0.3-0.1,0.5s0.1,0.3,0.2,0.4c0.1,0.1,0.2,0.2,0.4,0.3
		s0.3,0.1,0.5,0.1s0.3,0,0.5,0s0.4,0,0.6-0.1s0.4-0.1,0.6-0.2s0.3-0.3,0.5-0.4c0.1-0.2,0.2-0.4,0.2-0.6v-1.1H126.7z"/>
	<path class="st1" d="M130.1,46.1h1.5v1.4l0,0c0-0.2,0.1-0.4,0.3-0.6c0.1-0.2,0.3-0.4,0.5-0.5s0.4-0.3,0.6-0.4
		c0.2-0.1,0.5-0.1,0.7-0.1s0.3,0,0.4,0s0.1,0,0.2,0v1.5c-0.1,0-0.2,0-0.3,0c-0.1,0-0.2,0-0.3,0c-0.3,0-0.5,0.1-0.8,0.2
		c-0.2,0.1-0.4,0.3-0.6,0.5s-0.3,0.5-0.4,0.8s-0.2,0.7-0.2,1.1v3.4h-1.6L130.1,46.1L130.1,46.1z"/>
	<path class="st1" d="M134.2,46.1h1.8l1.9,5.4l0,0l1.8-5.4h1.7l-2.8,7.6c-0.1,0.3-0.3,0.6-0.4,0.9c-0.1,0.3-0.3,0.6-0.5,0.8
		s-0.4,0.4-0.7,0.5c-0.3,0.1-0.6,0.2-1,0.2s-0.7,0-1.1-0.1v-1.3c0.1,0,0.3,0,0.4,0.1c0.1,0,0.2,0,0.4,0c0.2,0,0.3,0,0.5-0.1
		c0.1,0,0.2-0.1,0.3-0.2c0.1-0.1,0.1-0.2,0.2-0.3s0.1-0.3,0.2-0.4l0.2-0.6L134.2,46.1z"/>
	<path class="st1" d="M151.8,50.2c0,0.4,0,0.9-0.1,1.3c-0.1,0.4-0.2,0.8-0.5,1.1c-0.2,0.3-0.6,0.6-1,0.8s-1,0.3-1.7,0.3
		c-0.5,0-1-0.1-1.4-0.2c-0.4-0.2-0.7-0.4-0.9-0.7c-0.2-0.3-0.4-0.6-0.5-1s-0.2-0.8-0.2-1.3V50h1.8v0.5c0,0.6,0.1,1,0.3,1.3
		c0.2,0.3,0.6,0.5,1.1,0.5c0.3,0,0.5,0,0.7-0.1s0.3-0.2,0.4-0.4s0.2-0.4,0.2-0.6c0-0.2,0.1-0.5,0.1-0.8v-6.9h1.8L151.8,50.2
		L151.8,50.2z"/>
	<path class="st1" d="M157,53.6c-0.6,0-1.1-0.1-1.5-0.3s-0.8-0.5-1.1-0.8s-0.6-0.7-0.7-1.2c-0.2-0.5-0.2-1-0.2-1.5
		c0-0.6,0.1-1.1,0.2-1.5c0.2-0.5,0.4-0.9,0.7-1.2c0.3-0.3,0.7-0.6,1.1-0.8c0.5-0.2,1-0.3,1.5-0.3c0.6,0,1.1,0.1,1.5,0.3
		c0.5,0.2,0.8,0.5,1.1,0.8c0.3,0.3,0.6,0.7,0.7,1.2c0.2,0.5,0.2,1,0.2,1.5c0,0.6-0.1,1.1-0.2,1.5s-0.4,0.9-0.7,1.2
		c-0.3,0.3-0.7,0.6-1.1,0.8S157.6,53.6,157,53.6z M157,52.3c0.4,0,0.7-0.1,0.9-0.2s0.5-0.3,0.6-0.6c0.2-0.2,0.3-0.5,0.4-0.8
		s0.1-0.6,0.1-0.9c0-0.3,0-0.6-0.1-0.9c-0.1-0.3-0.2-0.6-0.4-0.8s-0.4-0.4-0.6-0.6s-0.6-0.2-0.9-0.2c-0.4,0-0.7,0.1-0.9,0.2
		s-0.5,0.3-0.6,0.6s-0.3,0.5-0.4,0.8s-0.1,0.6-0.1,0.9c0,0.3,0,0.6,0.1,0.9c0.1,0.3,0.2,0.6,0.4,0.8c0.2,0.2,0.4,0.4,0.6,0.6
		S156.6,52.3,157,52.3z"/>
	<path class="st1" d="M168.3,53.4h-1.6v-1l0,0c-0.2,0.4-0.5,0.7-0.9,0.9s-0.8,0.3-1.2,0.3c-1,0-1.6-0.2-2.1-0.7
		c-0.4-0.5-0.6-1.2-0.6-2.1v-4.6h1.6v4.4c0,0.6,0.1,1.1,0.4,1.3c0.2,0.3,0.6,0.4,1,0.4c0.3,0,0.6-0.1,0.8-0.2
		c0.2-0.1,0.4-0.2,0.5-0.4s0.2-0.4,0.3-0.6c0.1-0.2,0.1-0.5,0.1-0.8v-4.2h1.6v7.3H168.3z"/>
	<path class="st1" d="M170,46.1h1.5v1.4l0,0c0-0.2,0.1-0.4,0.3-0.6c0.1-0.2,0.3-0.4,0.5-0.5s0.4-0.3,0.6-0.4
		c0.2-0.1,0.5-0.1,0.7-0.1s0.3,0,0.4,0s0.1,0,0.2,0v1.5c-0.1,0-0.2,0-0.3,0c-0.1,0-0.2,0-0.3,0c-0.3,0-0.5,0.1-0.8,0.2
		c-0.2,0.1-0.4,0.3-0.6,0.5s-0.3,0.5-0.4,0.8s-0.2,0.7-0.2,1.1v3.4H170V46.1z"/>
	<path class="st1" d="M175.2,46.1h1.5v1.1l0,0c0.2-0.4,0.6-0.7,1-0.9s0.8-0.3,1.3-0.3c0.8,0,1.4,0.2,1.9,0.6c0.5,0.4,0.7,1,0.7,1.8
		v5H180v-4.5c0-0.6-0.1-1-0.4-1.2s-0.6-0.4-1-0.4c-0.3,0-0.5,0-0.7,0.1s-0.4,0.2-0.5,0.4s-0.3,0.4-0.3,0.6s-0.1,0.5-0.1,0.7v4.3
		h-1.6v-7.3H175.2z"/>
	<path class="st1" d="M189.3,51.8c0,0.2,0,0.3,0.1,0.4c0.1,0.1,0.2,0.1,0.3,0.1c0,0,0.1,0,0.2,0s0.1,0,0.2,0v1.1
		c-0.1,0-0.1,0-0.2,0.1c-0.1,0-0.2,0-0.3,0.1s-0.2,0-0.3,0c-0.1,0-0.2,0-0.2,0c-0.3,0-0.6-0.1-0.8-0.2s-0.4-0.4-0.4-0.7
		c-0.3,0.3-0.7,0.5-1.2,0.7c-0.5,0.1-0.9,0.2-1.3,0.2c-0.3,0-0.6,0-0.9-0.1s-0.6-0.2-0.8-0.4c-0.2-0.2-0.4-0.4-0.5-0.7
		s-0.2-0.6-0.2-0.9c0-0.4,0.1-0.8,0.2-1.1c0.2-0.3,0.4-0.5,0.6-0.7c0.3-0.2,0.6-0.3,0.9-0.3c0.3-0.1,0.7-0.1,1-0.2
		c0.3-0.1,0.6-0.1,0.8-0.1c0.3,0,0.5-0.1,0.7-0.1c0.2-0.1,0.4-0.1,0.5-0.3c0.1-0.1,0.2-0.3,0.2-0.5s0-0.4-0.1-0.5s-0.2-0.2-0.4-0.3
		s-0.3-0.1-0.5-0.1s-0.3,0-0.5,0c-0.4,0-0.8,0.1-1.1,0.3c-0.3,0.2-0.5,0.5-0.5,0.9h-1.6c0-0.5,0.1-0.9,0.3-1.2
		c0.2-0.3,0.4-0.6,0.7-0.7c0.3-0.2,0.6-0.3,1-0.4c0.4-0.1,0.8-0.1,1.2-0.1c0.4,0,0.7,0,1,0.1s0.7,0.2,0.9,0.4s0.5,0.4,0.7,0.7
		s0.3,0.6,0.3,1L189.3,51.8L189.3,51.8z M187.7,49.8c-0.2,0.2-0.5,0.3-0.9,0.3s-0.7,0.1-1.1,0.1c-0.2,0-0.3,0.1-0.5,0.1
		c-0.2,0.1-0.3,0.1-0.4,0.2c-0.1,0.1-0.2,0.2-0.3,0.4c-0.1,0.1-0.1,0.3-0.1,0.5s0.1,0.3,0.2,0.4c0.1,0.1,0.2,0.2,0.4,0.3
		s0.3,0.1,0.5,0.1s0.3,0,0.5,0s0.4,0,0.6-0.1s0.4-0.1,0.6-0.2c0.2-0.1,0.3-0.3,0.5-0.4c0.1-0.2,0.2-0.4,0.2-0.6v-1.1H187.7z"/>
	<path class="st1" d="M191,43.4h1.6v10H191V43.4z"/>
	<path class="st1" d="M201.6,53.6c-0.6,0-1.1-0.1-1.5-0.3c-0.5-0.2-0.8-0.5-1.1-0.8s-0.6-0.7-0.7-1.2c-0.2-0.5-0.2-1-0.2-1.5
		c0-0.6,0.1-1.1,0.2-1.5c0.2-0.5,0.4-0.9,0.7-1.2c0.3-0.3,0.7-0.6,1.1-0.8c0.5-0.2,1-0.3,1.5-0.3c0.6,0,1.1,0.1,1.5,0.3
		c0.5,0.2,0.8,0.5,1.1,0.8c0.3,0.3,0.6,0.7,0.7,1.2c0.2,0.5,0.2,1,0.2,1.5c0,0.6-0.1,1.1-0.2,1.5s-0.4,0.9-0.7,1.2s-0.7,0.6-1.1,0.8
		S202.2,53.6,201.6,53.6z M201.6,52.3c0.4,0,0.7-0.1,0.9-0.2c0.3-0.1,0.5-0.3,0.6-0.6c0.2-0.2,0.3-0.5,0.4-0.8s0.1-0.6,0.1-0.9
		c0-0.3,0-0.6-0.1-0.9c-0.1-0.3-0.2-0.6-0.4-0.8s-0.4-0.4-0.6-0.6c-0.3-0.1-0.6-0.2-0.9-0.2c-0.4,0-0.7,0.1-0.9,0.2
		c-0.3,0.1-0.5,0.3-0.6,0.6s-0.3,0.5-0.4,0.8s-0.1,0.6-0.1,0.9c0,0.3,0,0.6,0.1,0.9c0.1,0.3,0.2,0.6,0.4,0.8
		c0.2,0.2,0.4,0.4,0.6,0.6C200.9,52.2,201.2,52.3,201.6,52.3z"/>
	<path class="st1" d="M205.9,46.1h1.2v-0.6c0-0.5,0.1-0.8,0.2-1.1s0.3-0.5,0.4-0.7c0.2-0.2,0.4-0.3,0.6-0.3c0.2-0.1,0.5-0.1,0.7-0.1
		c0.5,0,0.9,0,1.1,0.1v1.2c-0.1,0-0.2,0-0.3-0.1c-0.1,0-0.3,0-0.4,0c-0.2,0-0.4,0.1-0.6,0.2c-0.2,0.1-0.2,0.3-0.2,0.6V46h1.4v1.2
		h-1.4v6H207v-6h-1.2v-1.1H205.9z"/>
	<path class="st1" d="M215,43.4h1.8l4.6,7.4l0,0v-7.4h1.7v10h-1.8l-4.5-7.3l0,0v7.3H215V43.4z"/>
	<path class="st1" d="M228.3,53.6c-0.6,0-1.1-0.1-1.5-0.3c-0.5-0.2-0.8-0.5-1.1-0.8s-0.6-0.7-0.7-1.2s-0.2-1-0.2-1.5
		c0-0.6,0.1-1.1,0.2-1.5c0.2-0.5,0.4-0.9,0.7-1.2c0.3-0.3,0.7-0.6,1.1-0.8c0.5-0.2,1-0.3,1.5-0.3s1.1,0.1,1.5,0.3
		c0.5,0.2,0.8,0.5,1.1,0.8c0.3,0.3,0.6,0.7,0.7,1.2c0.2,0.5,0.2,1,0.2,1.5c0,0.6-0.1,1.1-0.2,1.5s-0.4,0.9-0.7,1.2
		c-0.3,0.3-0.7,0.6-1.1,0.8S228.9,53.6,228.3,53.6z M228.3,52.3c0.4,0,0.7-0.1,0.9-0.2c0.3-0.1,0.5-0.3,0.6-0.6
		c0.2-0.2,0.3-0.5,0.4-0.8s0.1-0.6,0.1-0.9c0-0.3,0-0.6-0.1-0.9c-0.1-0.3-0.2-0.6-0.4-0.8s-0.4-0.4-0.6-0.6
		c-0.3-0.1-0.6-0.2-0.9-0.2s-0.7,0.1-0.9,0.2c-0.3,0.1-0.5,0.3-0.6,0.6s-0.3,0.5-0.4,0.8s-0.1,0.6-0.1,0.9c0,0.3,0,0.6,0.1,0.9
		c0.1,0.3,0.2,0.6,0.4,0.8c0.2,0.2,0.4,0.4,0.6,0.6C227.6,52.2,227.9,52.3,228.3,52.3z"/>
	<path class="st1" d="M233.3,46.1h1.5v1.1l0,0c0.2-0.4,0.6-0.7,1-0.9s0.8-0.3,1.3-0.3c0.8,0,1.4,0.2,1.9,0.6c0.5,0.4,0.7,1,0.7,1.8
		v5H238v-4.5c0-0.6-0.1-1-0.4-1.2s-0.6-0.4-1-0.4c-0.3,0-0.5,0-0.7,0.1s-0.4,0.2-0.5,0.4s-0.3,0.4-0.3,0.6s-0.1,0.5-0.1,0.7v4.3
		h-1.6v-7.3H233.3z"/>
	<path class="st1" d="M241.4,43.4h1.6v10h-1.6V43.4z"/>
	<path class="st1" d="M244.7,43.4h1.6v1.5h-1.6V43.4z M244.7,46.1h1.6v7.2h-1.6V46.1z"/>
	<path class="st1" d="M248.1,46.1h1.5v1.1l0,0c0.2-0.4,0.6-0.7,1-0.9s0.8-0.3,1.3-0.3c0.8,0,1.4,0.2,1.9,0.6c0.5,0.4,0.7,1,0.7,1.8
		v5h-1.6v-4.5c0-0.6-0.1-1-0.4-1.2s-0.6-0.4-1-0.4c-0.3,0-0.5,0-0.7,0.1s-0.4,0.2-0.5,0.4s-0.3,0.4-0.3,0.6s-0.1,0.5-0.1,0.7v4.3
		h-1.6v-7.3H248.1z"/>
	<path class="st1" d="M257.3,50.2c0,0.3,0,0.6,0.1,0.8c0.1,0.3,0.2,0.5,0.4,0.7c0.2,0.2,0.4,0.4,0.6,0.5s0.5,0.2,0.9,0.2
		c0.5,0,0.8-0.1,1.1-0.3c0.3-0.2,0.5-0.5,0.6-0.9h1.5c-0.1,0.4-0.2,0.7-0.4,1c-0.2,0.3-0.5,0.6-0.7,0.8s-0.6,0.4-1,0.5
		s-0.7,0.2-1.1,0.2c-0.6,0-1.1-0.1-1.5-0.3s-0.8-0.4-1.1-0.8c-0.3-0.3-0.5-0.7-0.7-1.2s-0.2-1-0.2-1.5s0.1-1,0.2-1.5
		s0.4-0.9,0.7-1.2c0.3-0.3,0.7-0.6,1.1-0.8s0.9-0.3,1.5-0.3s1.1,0.1,1.5,0.4c0.5,0.2,0.8,0.6,1.1,0.9c0.3,0.4,0.5,0.8,0.7,1.4
		c0.1,0.5,0.2,1,0.1,1.6h-5.4V50.2z M261.1,49.1c0-0.3-0.1-0.5-0.2-0.7s-0.2-0.4-0.4-0.6c-0.2-0.2-0.3-0.3-0.6-0.4s-0.5-0.2-0.7-0.2
		c-0.3,0-0.5,0-0.8,0.1c-0.2,0.1-0.4,0.2-0.6,0.4s-0.3,0.4-0.4,0.6c-0.1,0.2-0.2,0.5-0.2,0.8C257.2,49.1,261.1,49.1,261.1,49.1z"/>
	<path class="st1" d="M269.9,51.8c0,0.2,0,0.3,0.1,0.4c0.1,0.1,0.2,0.1,0.3,0.1c0,0,0.1,0,0.2,0s0.1,0,0.2,0v1.1
		c-0.1,0-0.1,0-0.2,0.1c-0.1,0-0.2,0-0.3,0.1s-0.2,0-0.3,0c-0.1,0-0.2,0-0.2,0c-0.3,0-0.6-0.1-0.8-0.2s-0.4-0.4-0.4-0.7
		c-0.3,0.3-0.7,0.5-1.2,0.7c-0.5,0.1-0.9,0.2-1.3,0.2c-0.3,0-0.6,0-0.9-0.1s-0.6-0.2-0.8-0.4c-0.2-0.2-0.4-0.4-0.5-0.7
		s-0.2-0.6-0.2-0.9c0-0.4,0.1-0.8,0.2-1.1c0.2-0.3,0.4-0.5,0.6-0.7c0.3-0.2,0.6-0.3,0.9-0.3c0.3-0.1,0.7-0.1,1-0.2
		c0.3-0.1,0.6-0.1,0.8-0.1c0.3,0,0.5-0.1,0.7-0.1c0.2-0.1,0.4-0.1,0.5-0.3c0.1-0.1,0.2-0.3,0.2-0.5s0-0.4-0.1-0.5s-0.2-0.2-0.4-0.3
		s-0.3-0.1-0.5-0.1s-0.3,0-0.5,0c-0.4,0-0.8,0.1-1.1,0.3c-0.3,0.2-0.5,0.5-0.5,0.9h-1.6c0-0.5,0.1-0.9,0.3-1.2
		c0.2-0.3,0.4-0.6,0.7-0.7c0.3-0.2,0.6-0.3,1-0.4c0.4-0.1,0.8-0.1,1.2-0.1c0.4,0,0.7,0,1,0.1s0.7,0.2,0.9,0.4s0.5,0.4,0.7,0.7
		s0.3,0.6,0.3,1L269.9,51.8L269.9,51.8z M268.3,49.8c-0.2,0.2-0.5,0.3-0.9,0.3s-0.7,0.1-1.1,0.1c-0.2,0-0.3,0.1-0.5,0.1
		c-0.2,0.1-0.3,0.1-0.4,0.2c-0.1,0.1-0.2,0.2-0.3,0.4c-0.1,0.1-0.1,0.3-0.1,0.5s0.1,0.3,0.2,0.4c0.1,0.1,0.2,0.2,0.4,0.3
		s0.3,0.1,0.5,0.1s0.3,0,0.5,0s0.4,0,0.6-0.1s0.4-0.1,0.6-0.2c0.2-0.1,0.3-0.3,0.5-0.4c0.1-0.2,0.2-0.4,0.2-0.6v-1.1H268.3z"/>
	<path class="st1" d="M271.7,46.1h1.5v1.4l0,0c0-0.2,0.1-0.4,0.3-0.6c0.1-0.2,0.3-0.4,0.5-0.5s0.4-0.3,0.6-0.4
		c0.2-0.1,0.5-0.1,0.7-0.1s0.3,0,0.4,0s0.1,0,0.2,0v1.5c-0.1,0-0.2,0-0.3,0c-0.1,0-0.2,0-0.3,0c-0.3,0-0.5,0.1-0.8,0.2
		c-0.2,0.1-0.4,0.3-0.6,0.5s-0.3,0.5-0.4,0.8s-0.2,0.7-0.2,1.1v3.4h-1.6L271.7,46.1L271.7,46.1z"/>
	<path class="st1" d="M281.9,50.1c0,0.4,0.1,0.7,0.2,1s0.3,0.5,0.5,0.7s0.5,0.3,0.8,0.4c0.3,0.1,0.6,0.1,1,0.1s0.7,0,1-0.1
		s0.5-0.2,0.7-0.3s0.3-0.3,0.4-0.5s0.1-0.4,0.1-0.6c0-0.4-0.1-0.7-0.3-0.8c-0.2-0.2-0.4-0.3-0.6-0.4c-0.4-0.1-0.8-0.3-1.2-0.4
		c-0.5-0.1-1.1-0.3-1.7-0.5c-0.4-0.1-0.8-0.3-1.1-0.4c-0.3-0.2-0.5-0.4-0.7-0.6c-0.2-0.2-0.3-0.5-0.4-0.7c-0.1-0.3-0.1-0.5-0.1-0.8
		c0-0.5,0.1-0.9,0.3-1.3c0.2-0.4,0.5-0.7,0.8-0.9s0.7-0.4,1.2-0.5c0.4-0.1,0.9-0.2,1.3-0.2c0.5,0,1,0.1,1.5,0.2
		c0.5,0.1,0.9,0.3,1.2,0.6c0.4,0.3,0.6,0.6,0.8,1s0.3,0.9,0.3,1.4h-1.8c0-0.6-0.3-1.1-0.7-1.4c-0.4-0.3-0.9-0.4-1.5-0.4
		c-0.2,0-0.4,0-0.6,0.1s-0.4,0.1-0.6,0.2c-0.2,0.1-0.3,0.2-0.4,0.4s-0.2,0.4-0.2,0.6c0,0.4,0.1,0.6,0.3,0.8c0.2,0.2,0.5,0.4,0.9,0.5
		c0,0,0.2,0,0.4,0.1c0.3,0.1,0.5,0.1,0.9,0.2s0.6,0.2,0.9,0.2s0.5,0.1,0.7,0.2c0.3,0.1,0.6,0.2,0.9,0.4c0.2,0.2,0.4,0.4,0.6,0.6
		c0.2,0.2,0.3,0.5,0.4,0.7c0.1,0.3,0.1,0.5,0.1,0.8c0,0.6-0.1,1-0.3,1.4s-0.5,0.7-0.9,1s-0.8,0.4-1.3,0.6c-0.5,0.1-1,0.2-1.5,0.2
		c-0.6,0-1.1-0.1-1.6-0.2c-0.5-0.1-0.9-0.4-1.3-0.6c-0.4-0.3-0.7-0.7-0.9-1.1c-0.2-0.5-0.3-1-0.3-1.6h1.8V50.1z"/>
	<path class="st1" d="M294.4,48.6c-0.1-0.4-0.2-0.8-0.5-1s-0.7-0.3-1.1-0.3c-0.2,0-0.4,0-0.7,0.1c-0.2,0.1-0.4,0.2-0.6,0.4
		s-0.4,0.5-0.5,0.8s-0.2,0.8-0.2,1.3c0,0.3,0,0.6,0.1,0.9c0.1,0.3,0.2,0.6,0.3,0.8c0.2,0.2,0.4,0.4,0.6,0.6c0.2,0.1,0.5,0.2,0.9,0.2
		c0.5,0,0.9-0.1,1.2-0.4c0.3-0.3,0.5-0.7,0.6-1.2h1.6c-0.1,0.9-0.5,1.7-1.1,2.2s-1.3,0.7-2.2,0.7c-0.6,0-1.1-0.1-1.5-0.3
		s-0.8-0.5-1.1-0.8s-0.5-0.7-0.7-1.2s-0.2-1-0.2-1.5s0.1-1,0.2-1.5s0.4-0.9,0.7-1.2c0.3-0.4,0.7-0.6,1.1-0.8s1-0.3,1.6-0.3
		c0.4,0,0.8,0.1,1.2,0.2c0.4,0.1,0.7,0.3,1,0.5s0.5,0.5,0.7,0.8s0.3,0.7,0.3,1.2h-1.7V48.6z"/>
	<path class="st1" d="M297.4,43.4h1.6v1.5h-1.6V43.4z M297.4,46.1h1.6v7.2h-1.6V46.1z"/>
	<path class="st1" d="M302,50.2c0,0.3,0,0.6,0.1,0.8c0.1,0.3,0.2,0.5,0.4,0.7c0.2,0.2,0.4,0.4,0.6,0.5s0.5,0.2,0.9,0.2
		c0.5,0,0.8-0.1,1.1-0.3c0.3-0.2,0.5-0.5,0.6-0.9h1.5c-0.1,0.4-0.2,0.7-0.4,1c-0.2,0.3-0.5,0.6-0.7,0.8c-0.3,0.2-0.6,0.4-1,0.5
		s-0.7,0.2-1.1,0.2c-0.6,0-1.1-0.1-1.5-0.3s-0.8-0.4-1.1-0.8c-0.3-0.3-0.5-0.7-0.7-1.2s-0.2-1-0.2-1.5s0.1-1,0.2-1.5
		s0.4-0.9,0.7-1.2c0.3-0.3,0.7-0.6,1.1-0.8s0.9-0.3,1.5-0.3s1.1,0.1,1.5,0.4c0.5,0.2,0.8,0.6,1.1,0.9c0.3,0.4,0.5,0.8,0.7,1.4
		c0.1,0.5,0.2,1,0.1,1.6H302V50.2z M305.7,49.1c0-0.3-0.1-0.5-0.2-0.7s-0.2-0.4-0.4-0.6s-0.3-0.3-0.6-0.4c-0.2-0.1-0.5-0.2-0.7-0.2
		c-0.3,0-0.5,0-0.8,0.1c-0.2,0.1-0.4,0.2-0.6,0.4s-0.3,0.4-0.4,0.6c-0.1,0.2-0.2,0.5-0.2,0.8C301.8,49.1,305.7,49.1,305.7,49.1z"/>
	<path class="st1" d="M308.5,46.1h1.5v1.1l0,0c0.2-0.4,0.6-0.7,1-0.9s0.8-0.3,1.3-0.3c0.8,0,1.4,0.2,1.9,0.6c0.5,0.4,0.7,1,0.7,1.8
		v5h-1.6v-4.5c0-0.6-0.1-1-0.4-1.2s-0.6-0.4-1-0.4c-0.3,0-0.5,0-0.7,0.1s-0.4,0.2-0.5,0.4s-0.3,0.4-0.3,0.6s-0.1,0.5-0.1,0.7v4.3
		h-1.6v-7.3H308.5z"/>
	<path class="st1" d="M321.4,48.6c-0.1-0.4-0.2-0.8-0.5-1s-0.7-0.3-1.1-0.3c-0.2,0-0.4,0-0.7,0.1c-0.2,0.1-0.4,0.2-0.6,0.4
		s-0.4,0.5-0.5,0.8s-0.2,0.8-0.2,1.3c0,0.3,0,0.6,0.1,0.9c0.1,0.3,0.2,0.6,0.3,0.8c0.2,0.2,0.4,0.4,0.6,0.6c0.2,0.1,0.5,0.2,0.9,0.2
		c0.5,0,0.9-0.1,1.2-0.4c0.3-0.3,0.5-0.7,0.6-1.2h1.6c-0.1,0.9-0.5,1.7-1.1,2.2s-1.3,0.7-2.2,0.7c-0.6,0-1.1-0.1-1.5-0.3
		s-0.8-0.5-1.1-0.8s-0.5-0.7-0.7-1.2s-0.2-1-0.2-1.5s0.1-1,0.2-1.5s0.4-0.9,0.7-1.2c0.3-0.4,0.7-0.6,1.1-0.8s1-0.3,1.6-0.3
		c0.4,0,0.8,0.1,1.2,0.2c0.4,0.1,0.7,0.3,1,0.5s0.5,0.5,0.7,0.8s0.3,0.7,0.3,1.2h-1.7V48.6z"/>
	<path class="st1" d="M325.6,50.2c0,0.3,0,0.6,0.1,0.8c0.1,0.3,0.2,0.5,0.4,0.7c0.2,0.2,0.4,0.4,0.6,0.5s0.5,0.2,0.9,0.2
		c0.5,0,0.8-0.1,1.1-0.3c0.3-0.2,0.5-0.5,0.6-0.9h1.5c-0.1,0.4-0.2,0.7-0.4,1c-0.2,0.3-0.5,0.6-0.7,0.8s-0.6,0.4-1,0.5
		s-0.7,0.2-1.1,0.2c-0.6,0-1.1-0.1-1.5-0.3s-0.8-0.4-1.1-0.8c-0.3-0.3-0.5-0.7-0.7-1.2s-0.2-1-0.2-1.5s0.1-1,0.2-1.5
		s0.4-0.9,0.7-1.2c0.3-0.3,0.7-0.6,1.1-0.8s0.9-0.3,1.5-0.3s1.1,0.1,1.5,0.4c0.5,0.2,0.8,0.6,1.1,0.9c0.3,0.4,0.5,0.8,0.7,1.4
		c0.1,0.5,0.2,1,0.1,1.6h-5.4V50.2z M329.3,49.1c0-0.3-0.1-0.5-0.2-0.7s-0.2-0.4-0.4-0.6c-0.2-0.2-0.3-0.3-0.6-0.4s-0.5-0.2-0.7-0.2
		c-0.3,0-0.5,0-0.8,0.1c-0.2,0.1-0.4,0.2-0.6,0.4s-0.3,0.4-0.4,0.6c-0.1,0.2-0.2,0.5-0.2,0.8C325.4,49.1,329.3,49.1,329.3,49.1z"/>
</g>
</svg>
