<?xml version="1.0" encoding="utf-8"?>
<!-- Generator: Adobe Illustrator 26.5.0, SVG Export Plug-In . SVG Version: 6.00 Build 0)  -->
<svg version="1.1" id="Layer_1" xmlns="http://www.w3.org/2000/svg" xmlns:xlink="http://www.w3.org/1999/xlink" x="0px" y="0px"
	 viewBox="0 0 207.6 207.6" style="enable-background:new 0 0 207.6 207.6;" xml:space="preserve">
<style type="text/css">
	.st0{fill:#FFFFFF;}
	.st1{fill:#3D419A;}
</style>
<g>
	<path class="st0" d="M62.9,103.4c0-25.5,19.5-43.6,46.1-43.6c15.5,0,27.9,5.6,36,15.8L130,89.3c-5.3-6.3-11.7-9.8-19.8-9.8
		c-13.8,0-23.4,9.6-23.4,24s9.6,24,23.4,24c8,0,14.5-3.5,19.8-9.8l15.1,13.7c-8.1,10.2-20.6,15.8-36,15.8
		C82.4,147,62.9,128.9,62.9,103.4z"/>
</g>
<g>
	<circle class="st1" cx="103.7" cy="102.3" r="100.6"/>
	<g>
		<path class="st0" d="M94.6,78.7v18.4h37v18.3h-37v28.7H70.9V60.4h65.8v18.3H94.6z"/>
	</g>
</g>
</svg>
