<?xml version="1.0" encoding="utf-8"?>
<!-- Generator: Adobe Illustrator 26.5.0, SVG Export Plug-In . SVG Version: 6.00 Build 0)  -->
<svg version="1.1" id="Layer_1" xmlns="http://www.w3.org/2000/svg" xmlns:xlink="http://www.w3.org/1999/xlink" x="0px" y="0px"
	 viewBox="0 0 207.6 207.6" style="enable-background:new 0 0 207.6 207.6;" xml:space="preserve">
<style type="text/css">
	.st0{fill:#3D419A;}
	.st1{fill:#FFFFFF;}
</style>
<circle class="st0" cx="106.1" cy="102.2" r="100.6"/>
<g>
	<path class="st1" d="M12.4,134.8l6.6-14.6c7.1,5.1,17.6,8.7,27.7,8.7c11.5,0,16.2-3.8,16.2-9c0-15.7-48.7-4.9-48.7-36
		c0-14.3,11.5-26.1,35.3-26.1c10.5,0,21.3,2.5,29.1,7.4l-6,14.7c-7.8-4.4-15.8-6.6-23.2-6.6c-11.5,0-15.9,4.3-15.9,9.6
		c0,15.5,48.7,4.8,48.7,35.6c0,14-11.6,26-35.6,26C33.3,144.5,19.8,140.5,12.4,134.8z"/>
	<path class="st1" d="M84.2,101.1c0-25.3,19.4-43.4,45.5-43.4c14.5,0,26.6,5.3,34.5,14.9l-12.5,11.5c-5.6-6.5-12.7-9.8-21.1-9.8
		c-15.7,0-26.8,11-26.8,26.8c0,15.8,11.1,26.8,26.8,26.8c8.4,0,15.4-3.4,21.1-9.9l12.5,11.5c-7.9,9.7-20,15-34.6,15
		C103.6,144.5,84.2,126.4,84.2,101.1z"/>
	<path class="st1" d="M171.2,59.2h19.4v83.8h-19.4V59.2z"/>
</g>
</svg>
